<svg xmlns="http://www.w3.org/2000/svg" width="48" height="48" viewBox="0 0 24 24"><g fill-opacity="0" stroke="black" stroke-linecap="round" stroke-linejoin="round" stroke-width="1.95"><path fill="black" stroke-dasharray="64" stroke-dashoffset="64" d="M8 3C8.5 3 10.5 7.5 10.5 8C10.5 9 9 10 8.5 11C8 12 9 13 10 14C10.3943 14.3943 12 16 13 15.5C14 15 15 13.5 16 13.5C16.5 13.5 21 15.5 21 16C21 18 19.5 19.5 18 20C16.5 20.5 15.5 20.5 13.5 20C11.5 19.5 10 19 7.5 16.5C5 14 4.5 12.5 4 10.5C3.5 8.5 3.5 7.5 4 6C4.5 4.5 6 3 8 3Z"><animate fill="freeze" attributeName="stroke-dashoffset" dur="1.8s" values="64;0"/><animate fill="freeze" attributeName="fill-opacity" begin="1.8s" dur="0.45s" values="0;1"/></path></g></svg>